<svg width="60" height="60" viewBox="0 0 60 60" fill="none" xmlns="http://www.w3.org/2000/svg">
<path d="M57.8906 28.8984C57.7063 28.5729 57.4574 28.2886 57.1591 28.0629C56.8608 27.8372 56.5195 27.6749 56.1562 27.5859C53.707 26.992 51.1613 26.9122 48.6797 27.3516C49.7343 22.7109 49.0547 19.0781 48.3515 16.9688C48.14 16.3051 47.6897 15.7435 47.0879 15.3927C46.486 15.042 45.7754 14.9271 45.0937 15.0703C42.6758 15.6175 40.3899 16.6371 38.3672 18.0703C36.9364 14.6393 34.6338 11.6418 31.6875 9.375C31.2006 9.00988 30.6085 8.8125 30 8.8125C29.3914 8.8125 28.7993 9.00988 28.3125 9.375C25.3662 11.6418 23.0635 14.6393 21.6328 18.0703C19.6101 16.6371 17.3241 15.6175 14.9062 15.0703C14.2245 14.9271 13.5139 15.042 12.9121 15.3927C12.3102 15.7435 11.8599 16.3051 11.6484 16.9688C10.9453 19.0781 10.2656 22.7109 11.3203 27.3516C8.83868 26.9122 6.29293 26.992 3.84372 27.5859C3.4804 27.6749 3.13911 27.8372 2.84084 28.0629C2.54258 28.2886 2.29364 28.5729 2.10935 28.8984C1.73772 29.5529 1.63678 30.3268 1.8281 31.0547C2.62497 33.8672 5.06247 39.2578 12.4453 43.5234C19.8281 47.7891 26.4609 47.8125 30 47.8125C33.539 47.8125 40.125 47.8125 47.5547 43.5234C54.9843 39.2344 57.375 33.8672 58.1718 31.0547C58.3632 30.3268 58.2622 29.5529 57.8906 28.8984ZM45.4922 16.9219C45.7155 16.8696 45.9504 16.9033 46.1501 17.0162C46.3499 17.129 46.4998 17.3129 46.5703 17.5313C47.25 19.6406 47.9297 23.3906 46.5 28.2188C46.4765 28.2656 46.4765 28.3125 46.4531 28.3594C45.8912 30.2141 45.1041 31.993 44.1093 33.6563C42.104 37.0931 39.4351 40.0967 36.2578 42.4922L35.6718 42.9141C38.039 39.7969 40.3125 35.0156 40.3125 28.125C40.3361 25.3249 39.9088 22.5392 39.0468 19.875C40.9605 18.4429 43.1579 17.436 45.4922 16.9219ZM29.4375 10.875C29.5998 10.7533 29.7971 10.6875 30 10.6875C30.2028 10.6875 30.4002 10.7533 30.5625 10.875C32.9297 12.6563 38.4375 17.8594 38.4375 28.125C38.4375 33.5391 36.9375 38.1797 34.0078 41.9531C32.8821 43.4303 31.5293 44.7197 30 45.7734C28.4706 44.7197 27.1179 43.4303 25.9922 41.9531C23.0625 38.1797 21.5625 33.5391 21.5625 28.125C21.5625 17.8594 27.0703 12.6563 29.4375 10.875ZM13.4297 17.5313C13.5001 17.3129 13.6501 17.129 13.8498 17.0162C14.0495 16.9033 14.2844 16.8696 14.5078 16.9219C16.842 17.436 19.0395 18.4429 20.9531 19.875C20.0912 22.5392 19.6638 25.3249 19.6875 28.125C19.6875 35.0156 21.9609 39.7969 24.3281 42.9141L23.7422 42.4922C20.5649 40.0967 17.8959 37.0931 15.8906 33.6563C14.8954 31.985 14.1083 30.1983 13.5468 28.3359L13.5 28.2188C12.0703 23.3906 12.75 19.6406 13.4297 17.5313ZM3.63279 30.5391C3.60077 30.4215 3.59257 30.2988 3.60867 30.178C3.62477 30.0573 3.66484 29.941 3.72654 29.8359C3.85624 29.6263 4.05526 29.4688 4.28904 29.3906C6.78648 28.8133 9.38182 28.8053 11.8828 29.3672C12.4907 31.1859 13.2839 32.9373 14.25 34.5938C17.2734 39.8438 21.6797 43.5938 25.2422 45.75C21.0578 45.3402 17.0119 44.0289 13.3828 41.9063C6.56247 37.9688 4.35935 33.0938 3.63279 30.5391ZM56.3672 30.5391C55.6406 33.0938 53.4375 37.9688 46.6172 41.9063C42.988 44.0289 38.9421 45.3402 34.7578 45.75C38.3203 43.5938 42.7265 39.8438 45.75 34.5938C46.716 32.9373 47.5093 31.1859 48.1172 29.3672C50.6181 28.8053 53.2135 28.8133 55.7109 29.3906C55.9447 29.4688 56.1437 29.6263 56.2734 29.8359C56.3351 29.941 56.3752 30.0573 56.3913 30.178C56.4074 30.2988 56.3992 30.4215 56.3672 30.5391Z" fill="#EABEAB"/>
</svg>
