<svg width="41" height="32" viewBox="0 0 41 32" fill="none" xmlns="http://www.w3.org/2000/svg">
<path d="M13.4687 19.125C18.517 19.125 22.6094 15.0326 22.6094 9.98438C22.6094 4.93615 18.517 0.84375 13.4687 0.84375C8.42052 0.84375 4.32812 4.93615 4.32812 9.98438C4.32812 15.0326 8.42052 19.125 13.4687 19.125Z" stroke="#EABEAB" stroke-miterlimit="10"/>
<path d="M25.3186 1.18438C26.5758 0.830155 27.8944 0.749461 29.1854 0.947729C30.4764 1.146 31.71 1.61863 32.803 2.33378C33.896 3.04893 34.823 3.99 35.5217 5.09361C36.2204 6.19722 36.6744 7.43773 36.8533 8.73159C37.0322 10.0255 36.9317 11.3426 36.5586 12.5944C36.1856 13.8462 35.5486 15.0035 34.6906 15.9883C33.8327 16.9732 32.7736 17.7627 31.5848 18.3038C30.3959 18.8449 29.105 19.125 27.7988 19.1251" stroke="#EABEAB" stroke-linecap="round" stroke-linejoin="round"/>
<path d="M0.811768 25.6986C2.23935 23.668 4.13455 22.0107 6.33736 20.8665C8.54018 19.7224 10.9859 19.1251 13.4682 19.125C15.9504 19.1249 18.3962 19.722 20.5991 20.866C22.802 22.01 24.6973 23.6672 26.1251 25.6977" stroke="#EABEAB" stroke-linecap="round" stroke-linejoin="round"/>
<path d="M27.799 19.125C30.2814 19.1232 32.7277 19.7196 34.9308 20.8637C37.1339 22.0078 39.0289 23.6659 40.4553 25.6977" stroke="#EABEAB" stroke-linecap="round" stroke-linejoin="round"/>
</svg>
