<svg width="45" height="45" viewBox="0 0 45 45" fill="none" xmlns="http://www.w3.org/2000/svg">
<path d="M21.5621 4.54879L7.38455 7.3843L4.54904 21.5618C4.50363 21.7889 4.51498 22.0236 4.58207 22.2451C4.64916 22.4667 4.76991 22.6683 4.93361 22.832L23.2944 41.1928C23.425 41.3234 23.5801 41.427 23.7507 41.4977C23.9213 41.5684 24.1041 41.6047 24.2888 41.6047C24.4735 41.6047 24.6564 41.5684 24.827 41.4977C24.9976 41.427 25.1526 41.3234 25.2832 41.1928L41.1931 25.2829C41.3237 25.1524 41.4273 24.9973 41.4979 24.8267C41.5686 24.6561 41.605 24.4732 41.605 24.2886C41.605 24.1039 41.5686 23.921 41.4979 23.7504C41.4273 23.5798 41.3237 23.4248 41.1931 23.2942L22.8322 4.93337C22.6685 4.76967 22.467 4.64891 22.2454 4.58182C22.0238 4.51474 21.7891 4.50339 21.5621 4.54879V4.54879Z" stroke="#EABEAB" stroke-linecap="round" stroke-linejoin="round"/>
<path d="M14.7656 16.875C15.9306 16.875 16.875 15.9306 16.875 14.7656C16.875 13.6006 15.9306 12.6562 14.7656 12.6562C13.6006 12.6562 12.6562 13.6006 12.6562 14.7656C12.6562 15.9306 13.6006 16.875 14.7656 16.875Z" fill="#EABEAB"/>
</svg>
