<svg width="45" height="45" viewBox="0 0 45 45" fill="none" xmlns="http://www.w3.org/2000/svg">
<path d="M15.4688 4.21875V9.84375" stroke="#EABEAB" stroke-linecap="round" stroke-linejoin="round"/>
<path d="M21.0938 4.21875V9.84375" stroke="#EABEAB" stroke-linecap="round" stroke-linejoin="round"/>
<path d="M26.7188 4.21875V9.84375" stroke="#EABEAB" stroke-linecap="round" stroke-linejoin="round"/>
<path d="M5.625 37.9688H36.5625" stroke="#EABEAB" stroke-linecap="round" stroke-linejoin="round"/>
<path d="M14.642 37.9694C11.9507 36.7341 9.67056 34.7523 8.07222 32.2595C6.47388 29.7666 5.62452 26.8675 5.625 23.9062V15.4688H36.5625V23.9062C36.563 26.8675 35.7136 29.7667 34.1152 32.2595C32.5169 34.7524 30.2367 36.7341 27.5454 37.9695" stroke="#EABEAB" stroke-linecap="round" stroke-linejoin="round"/>
<path d="M36.5625 15.4688C38.0543 15.4688 39.4851 16.0614 40.54 17.1163C41.5949 18.1712 42.1875 19.6019 42.1875 21.0938V22.5C42.1875 23.9918 41.5949 25.4226 40.54 26.4775C39.4851 27.5324 38.0543 28.125 36.5625 28.125H35.9686" stroke="#EABEAB" stroke-linecap="round" stroke-linejoin="round"/>
</svg>
