<svg width="45" height="45" viewBox="0 0 45 45" fill="none" xmlns="http://www.w3.org/2000/svg">
<path d="M31.6406 35.1562C34.3589 35.1562 36.5625 32.9527 36.5625 30.2344C36.5625 27.5161 34.3589 25.3125 31.6406 25.3125C28.9223 25.3125 26.7188 27.5161 26.7188 30.2344C26.7188 32.9527 28.9223 35.1562 31.6406 35.1562Z" stroke="#EABEAB" stroke-linecap="round" stroke-linejoin="round"/>
<path d="M9.14062 40.7812C11.8589 40.7812 14.0625 38.5777 14.0625 35.8594C14.0625 33.1411 11.8589 30.9375 9.14062 30.9375C6.42235 30.9375 4.21875 33.1411 4.21875 35.8594C4.21875 38.5777 6.42235 40.7812 9.14062 40.7812Z" stroke="#EABEAB" stroke-linecap="round" stroke-linejoin="round"/>
<path d="M14.0625 35.8594V11.25L36.5625 5.625V30.2344" stroke="#EABEAB" stroke-linecap="round" stroke-linejoin="round"/>
</svg>
