<svg width="45" height="45" viewBox="0 0 45 45" fill="none" xmlns="http://www.w3.org/2000/svg">
<path d="M16.2556 21.94C17.7143 24.9222 20.1316 27.3286 23.1204 28.7737C23.3391 28.8773 23.581 28.9222 23.8223 28.9039C24.0636 28.8857 24.296 28.8049 24.4966 28.6695L28.8974 25.735C29.092 25.6052 29.316 25.526 29.5489 25.5046C29.7819 25.4832 30.0165 25.5203 30.2315 25.6124L38.4646 29.1409C38.7443 29.2597 38.9778 29.4662 39.1299 29.7292C39.282 29.9923 39.3445 30.2976 39.308 30.5993C39.0478 32.6356 38.0543 34.5071 36.5135 35.8636C34.9727 37.2201 32.9903 37.9685 30.9375 37.9686C24.5972 37.9686 18.5165 35.4499 14.0332 30.9666C9.54994 26.4833 7.03125 20.4027 7.03125 14.0623C7.03136 12.0095 7.77971 10.0271 9.1362 8.48632C10.4927 6.94554 12.3643 5.95202 14.4005 5.69179C14.7022 5.65529 15.0076 5.71781 15.2706 5.86993C15.5336 6.02206 15.7401 6.25555 15.8589 6.53523L19.3905 14.7755C19.4818 14.9886 19.519 15.221 19.4988 15.4521C19.4786 15.6831 19.4016 15.9055 19.2746 16.0995L16.3502 20.5678C16.2171 20.7688 16.1384 21.0009 16.1218 21.2414C16.1053 21.4819 16.1513 21.7226 16.2556 21.94V21.94Z" stroke="#EABEAB" stroke-linecap="round" stroke-linejoin="round"/>
</svg>
