<svg width="40" height="40" viewBox="0 0 40 40" fill="none" xmlns="http://www.w3.org/2000/svg">
<path opacity="0.8" d="M13.7499 21.072L27.7995 33.4357C27.962 33.5787 28.159 33.6771 28.371 33.7211C28.583 33.7652 28.8028 33.7534 29.0089 33.6869C29.215 33.6205 29.4003 33.5016 29.5466 33.342C29.6929 33.1824 29.7953 32.9876 29.8437 32.7765L35.7208 7.13078C35.7716 6.90905 35.761 6.67765 35.69 6.46153C35.619 6.2454 35.4904 6.05275 35.318 5.90432C35.1456 5.75589 34.936 5.65731 34.7117 5.61922C34.4875 5.58112 34.2571 5.60494 34.0453 5.68812L5.20834 17.0169C4.95702 17.1157 4.74442 17.2931 4.60237 17.5228C4.46032 17.7524 4.39644 18.0219 4.4203 18.2908C4.44415 18.5598 4.55446 18.8138 4.73472 19.0148C4.91497 19.2159 5.15548 19.3532 5.42026 19.4061L13.7499 21.072Z" stroke="white" stroke-linecap="round" stroke-linejoin="round"/>
<path opacity="0.8" d="M13.75 21.0728L35.0175 5.71289" stroke="white" stroke-linecap="round" stroke-linejoin="round"/>
<path opacity="0.8" d="M20.7667 27.247L15.8839 32.1298C15.7091 32.3046 15.4863 32.4237 15.2439 32.4719C15.0014 32.5202 14.7501 32.4954 14.5216 32.4008C14.2932 32.3062 14.098 32.146 13.9607 31.9404C13.8233 31.7349 13.75 31.4932 13.75 31.246V21.0723" stroke="white" stroke-linecap="round" stroke-linejoin="round"/>
</svg>
