<svg width="40" height="40" viewBox="0 0 40 40" fill="none" xmlns="http://www.w3.org/2000/svg">
<path opacity="0.8" d="M37.3584 9.80623C35.9976 11.7544 34.2998 13.444 32.345 14.7952L32.345 14.7952C32.2213 18.2125 31.2238 21.5411 29.4476 24.4632C27.6715 27.3853 25.176 29.8034 22.1994 31.4866C19.2228 33.1698 15.8644 34.0619 12.4449 34.0778C9.02535 34.0937 5.65882 33.2329 2.66666 31.5775L2.66767 31.5757C6.57493 31.5216 10.3798 30.3184 13.6078 28.1162L13.6077 28.1164C10.1522 25.7613 7.52044 22.3838 6.08129 18.4575C4.64214 14.5312 4.4678 10.253 5.5827 6.22266L5.58263 6.2227C7.17946 8.68185 9.29752 10.7598 11.7868 12.3093C14.276 13.8587 17.0756 14.8419 19.987 15.189L19.9866 15.1891C19.68 13.7276 19.9067 12.2045 20.6258 10.8957C21.3448 9.5868 22.5086 8.57858 23.9066 8.05346C25.3046 7.52834 26.8444 7.52103 28.2473 8.03284C29.6503 8.54465 30.8236 9.54177 31.5551 10.8437L31.5551 10.8444C33.53 10.7855 35.4855 10.4357 37.3584 9.80623" stroke="white" stroke-linecap="round" stroke-linejoin="round"/>
</svg>
