<svg width="45" height="45" viewBox="0 0 45 45" fill="none" xmlns="http://www.w3.org/2000/svg">
<path opacity="0.8" d="M22.5 23.9062C25.6066 23.9062 28.125 21.3879 28.125 18.2812C28.125 15.1746 25.6066 12.6562 22.5 12.6562C19.3934 12.6562 16.875 15.1746 16.875 18.2812C16.875 21.3879 19.3934 23.9062 22.5 23.9062Z" stroke="white" stroke-linecap="round" stroke-linejoin="round"/>
<path opacity="0.8" d="M36.5625 18.2812C36.5625 30.9375 22.5 40.7812 22.5 40.7812C22.5 40.7812 8.4375 30.9375 8.4375 18.2812C8.4375 14.5516 9.91908 10.9748 12.5563 8.33756C15.1935 5.70033 18.7704 4.21875 22.5 4.21875C26.2296 4.21875 29.8065 5.70033 32.4437 8.33756C35.0809 10.9748 36.5625 14.5516 36.5625 18.2812V18.2812Z" stroke="white" stroke-linecap="round" stroke-linejoin="round"/>
</svg>
