<svg width="45" height="45" viewBox="0 0 45 45" fill="none" xmlns="http://www.w3.org/2000/svg">
<path opacity="0.8" d="M16.0308 21.5437C17.4539 24.4532 19.8123 26.801 22.7283 28.2108C22.9416 28.3119 23.1776 28.3557 23.4131 28.3379C23.6485 28.3201 23.8752 28.2413 24.0709 28.1093L28.3644 25.2462C28.5543 25.1196 28.7728 25.0424 29.0001 25.0215C29.2274 25.0006 29.4563 25.0368 29.666 25.1267L37.6984 28.5691C37.9713 28.685 38.1991 28.8865 38.3475 29.1431C38.496 29.3997 38.557 29.6977 38.5213 29.992C38.2675 31.9786 37.2982 33.8046 35.7949 35.128C34.2917 36.4514 32.3576 37.1815 30.3548 37.1816C24.169 37.1816 18.2366 34.7243 13.8626 30.3503C9.48855 25.9763 7.03125 20.0439 7.03125 13.8581C7.03136 11.8553 7.76147 9.9212 9.08489 8.41796C10.4083 6.91473 12.2343 5.94543 14.2209 5.69155C14.5152 5.65593 14.8131 5.71693 15.0698 5.86535C15.3264 6.01376 15.5279 6.24157 15.6438 6.51443L19.0892 14.5538C19.1784 14.7618 19.2147 14.9885 19.1949 15.2139C19.1752 15.4393 19.1001 15.6563 18.9762 15.8456L16.1231 20.205C15.9932 20.4011 15.9165 20.6275 15.9003 20.8622C15.8841 21.0968 15.9291 21.3317 16.0308 21.5437V21.5437Z" stroke="white" stroke-linecap="round" stroke-linejoin="round"/>
</svg>
