<svg width="109" height="119" viewBox="0 0 109 119" fill="none" xmlns="http://www.w3.org/2000/svg">
<circle cx="69" cy="50" r="40" fill="#F6DACC"/>
<path d="M88.5602 48.6665L60.4398 31.4812C60.2029 31.3365 59.9318 31.2574 59.6543 31.2522C59.3767 31.247 59.1028 31.3159 58.8607 31.4516C58.6186 31.5874 58.417 31.7852 58.2767 32.0248C58.1364 32.2643 58.0625 32.5369 58.0625 32.8145V67.185C58.0625 67.4626 58.1364 67.7352 58.2767 67.9747C58.417 68.2142 58.6186 68.412 58.8607 68.5478C59.1028 68.6836 59.3767 68.7524 59.6543 68.7472C59.9318 68.742 60.2029 68.663 60.4398 68.5183L88.5602 51.333C88.7886 51.1934 88.9773 50.9975 89.1082 50.764C89.2392 50.5306 89.3079 50.2674 89.3079 49.9997C89.3079 49.7321 89.2392 49.4689 89.1082 49.2354C88.9773 49.002 88.7886 48.8061 88.5602 48.6665Z" fill="#EABEAB"/>
<path fill-rule="evenodd" clip-rule="evenodd" d="M99.9719 87.7405C96.7056 90.7024 92.9818 93.2694 88.8385 95.3288C64.605 107.374 35.1953 97.4933 23.1502 73.2598C11.1051 49.0262 20.9857 19.6166 45.2193 7.57143C49.3629 5.51189 53.6578 4.09338 57.9913 3.27802C58.3948 2.86202 58.8062 2.45235 59.2256 2.04925C54.3232 2.82504 49.4541 4.34981 44.7742 6.67595C20.0461 18.9669 9.96378 48.9767 22.2547 73.7048C34.5457 98.4329 64.5555 108.515 89.2836 96.2243C93.9633 93.8983 98.1184 90.9377 101.697 87.4985C101.122 87.5894 100.547 87.67 99.9719 87.7405Z" fill="#372317"/>
</svg>
